<?xml version="1.0" standalone="no"?>
<!DOCTYPE svg PUBLIC "-//W3C//DTD SVG 20010904//EN"
 "http://www.w3.org/TR/2001/REC-SVG-20010904/DTD/svg10.dtd">
<svg version="1.0" xmlns="http://www.w3.org/2000/svg"
 width="512.000000pt" height="512.000000pt" viewBox="0 0 512.000000 512.000000"
 preserveAspectRatio="xMidYMid meet">

<g transform="translate(0.000000,512.000000) scale(0.100000,-0.100000)"
fill="#000000" stroke="none">
<path d="M4755 5113 c-41 -11 -4522 -1454 -4562 -1469 -57 -21 -129 -87 -161
-148 -36 -70 -38 -188 -4 -257 25 -52 82 -113 127 -137 17 -8 433 -149 925
-314 l894 -298 56 39 c349 243 1598 1109 1609 1116 20 12 54 62 -559 -815
-306 -437 -564 -807 -574 -822 -18 -27 -18 -28 279 -920 164 -491 306 -909
315 -928 25 -49 84 -105 139 -132 69 -34 187 -32 257 4 61 32 127 104 148 161
9 23 343 1057 743 2297 692 2148 727 2259 727 2330 1 122 -55 214 -160 266
-53 26 -153 40 -199 27z"/>
</g>
</svg>
